<?xml version="1.0" encoding="utf-8"?>
<!-- Generator: Adobe Illustrator 19.2.1, SVG Export Plug-In . SVG Version: 6.00 Build 0)  -->
<svg version="1.1" id="audio_on" xmlns="http://www.w3.org/2000/svg" xmlns:xlink="http://www.w3.org/1999/xlink" x="0px" y="0px"
	 viewBox="0 0 36 44" style="enable-background:new 0 0 36 44;" xml:space="preserve">
<style type="text/css">
	.st0{
		 fill:#fff; 
		 }
</style>
<g>
	<path id="Color_Fill_1"  data-name="Color Fill 1" class="st0" d="M5.545,6.65h0.23V6.664H6.018V6.678H6.14V6.692H6.248V6.707L6.424,6.721V6.735H6.492V6.749H6.559V6.763H6.627V6.777H6.681V6.791L6.8,6.805V6.819H6.843V6.834L6.951,6.848V6.862L7.046,6.876V6.89L7.181,6.918V6.932H7.222V6.946H7.262V6.961L7.344,6.975V6.989H7.371V7L7.492,7.031V7.045H7.519V7.059L7.6,7.073V7.087H7.628V7.1H7.668V7.116H7.7V7.13L7.763,7.144V7.158H7.8V7.172H7.83V7.186H7.871V7.2L7.925,7.214V7.229H7.966V7.243H7.993V7.257L8.047,7.271V7.285H8.087V7.3H8.114V7.313L8.2,7.341,8.209,7.37,8.263,7.384,8.277,7.412H8.3L8.331,7.454H8.358L8.412,7.525,8.453,7.553V7.581H8.466L8.48,7.624,8.507,7.638a0.664,0.664,0,0,1,.027.212,1.351,1.351,0,0,1-.568.663l-0.054.071H7.885V8.6l-0.041.028L7.83,8.654H7.8l-0.068.085H7.709l-0.068.085H7.614l-0.095.113H7.492l-0.122.141H7.344l-0.189.212H7.127l-0.216.24-0.257.254V9.81H6.64l-0.027.042-0.162.155v0.028l-0.135.127v0.028l-0.095.085V10.3l-0.095.085v0.028l-0.081.071v0.028l-0.068.056V10.6l-0.068.056v0.028l-0.068.056V10.77l-0.054.042V10.84l-0.054.042v0.028l-0.054.042v0.028L5.653,11V11.01l-0.027.014v0.028L5.6,11.066l-0.014.042-0.054.042v0.028l-0.041.028v0.028l-0.041.028v0.028L5.41,11.32v0.028l-0.041.028V11.4l-0.027.014v0.028l-0.027.014L5.3,11.5l-0.041.028V11.56l-0.027.014V11.6l-0.041.028v0.028l-0.027.014V11.7l-0.041.028v0.028H5.112L5.1,11.8l-0.027.014v0.028l-0.041.028V11.9L5,11.913v0.028H4.991l-0.014.042L4.95,12v0.028l-0.027.014v0.028L4.9,12.082V12.11H4.882l-0.014.042-0.027.014v0.028l-0.027.014v0.028l-0.027.014v0.028l-0.027.014-0.014.056-0.027.014v0.028l-0.027.014v0.028l-0.027.014-0.014.056H4.639l-0.014.042L4.6,12.562l-0.014.056H4.571l-0.014.042-0.027.014-0.014.056-0.027.014L4.477,12.8l-0.027.014-0.014.056-0.027.014L4.4,12.943l-0.027.014-0.014.056H4.341v0.028l-0.027.014L4.3,13.112l-0.027.014-0.027.085-0.027.014v0.028H4.206v0.028H4.193v0.028H4.179v0.028l-0.027.014V13.38H4.139v0.028H4.125v0.028H4.112v0.028l-0.027.014v0.028H4.071v0.028H4.057v0.028H4.044v0.028H4.03V13.62L4,13.634v0.028H3.99V13.69H3.976v0.028H3.963v0.028H3.949v0.028H3.936l-0.014.056L3.9,13.845l-0.027.085-0.027.014L3.828,14,3.8,14.015v0.028l-0.027.014v0.028L3.746,14.1v0.028l-0.054.042V14.2L3.6,14.283l-0.014.028H3.557l-0.014.028H3.517L3.5,14.367H3.476a0.3,0.3,0,0,1-.189.042V14.4H3.233V14.382H3.192V14.367H3.165V14.353l-0.081-.028-0.027-.042H3.03l-0.122-.141-0.108-.1V14.015l-0.068-.056-0.014-.042L2.692,13.9V13.874l-0.041-.028V13.817L2.61,13.789V13.761L2.57,13.733V13.7H2.556l-0.014-.042-0.027-.014V13.62l-0.041-.028V13.563l-0.027-.014V13.521l-0.027-.014-0.014-.042H2.394l-0.014-.056H2.367l-0.014-.042-0.027-.014L2.313,13.3l-0.027-.014V13.253H2.272V13.225l-0.027-.014-0.027-.085-0.027-.014V13.084H2.178V13.055H2.164V13.027H2.151V13H2.137V12.971H2.124V12.943H2.11V12.914H2.1V12.886H2.083L2.056,12.8H2.042V12.759H2.029L2.015,12.7H2V12.66H1.988V12.632H1.975l-0.014-.07H1.948V12.519H1.934V12.491H1.921l-0.135-.48-0.027-.226H1.745V11.7H1.731V11.588H1.718V11.4H1.7a1.873,1.873,0,0,1,.014-0.437V10.742H1.731V10.6H1.745V10.488H1.759V10.375H1.772V10.29H1.786V10.22H1.8V10.135H1.813l0.014-.127H1.84l0.027-.169H1.88V9.782H1.894l0.014-.1H1.921V9.641H1.934V9.6H1.948V9.556H1.961l0.027-.127H2V9.4H2.015l0.014-.085H2.042V9.288H2.056V9.246H2.07L2.083,9.19H2.1L2.11,9.119H2.124l0.027-.085H2.164V9.006H2.178V8.978H2.191V8.95H2.2V8.922H2.218V8.893H2.232V8.865H2.245V8.837l0.027-.014L2.3,8.738l0.027-.014L2.34,8.668H2.354l0.014-.042,0.027-.014,0.014-.056,0.027-.014V8.512l0.041-.028V8.456L2.5,8.442V8.414l0.041-.028V8.357l0.041-.028V8.3l0.054-.042V8.23l0.054-.042V8.16l0.095-.085V8.047L2.922,7.92l0.135-.155H3.084l0.095-.113H3.205L3.246,7.6H3.273l0.041-.056H3.341L3.368,7.5H3.395l0.027-.042H3.449l0.027-.042H3.5l0.014-.028L3.557,7.37V7.356H3.584L3.6,7.327H3.625L3.638,7.3H3.665l0.014-.028H3.706l0.014-.028,0.054-.014L3.787,7.2l0.054-.014,0.014-.028L3.936,7.13,3.949,7.1H3.976V7.087H4V7.073H4.03V7.059H4.057V7.045H4.085V7.031H4.112V7.017l0.081-.028V6.975H4.233V6.961l0.054-.014V6.932H4.328V6.918H4.355V6.9L4.436,6.89V6.876H4.463V6.862l0.176-.042V6.805H4.68V6.791H4.72V6.777H4.774V6.763H4.828V6.749H4.9V6.735H4.95V6.721H5.031V6.707H5.112V6.692H5.207V6.678H5.329V6.664A0.706,0.706,0,0,0,5.545,6.65Zm24.4,0.014a2.416,2.416,0,0,0,.3.028h0.135V6.707H30.5V6.721H30.6V6.735l0.162,0.014V6.763h0.081V6.777h0.068V6.791l0.122,0.014V6.819h0.054V6.834h0.054V6.848l0.108,0.014V6.876L31.388,6.9V6.918h0.041V6.932h0.041V6.946L31.55,6.961V6.975h0.027V6.989L31.659,7V7.017h0.027V7.031h0.041V7.045h0.027V7.059h0.041V7.073l0.054,
	0.014V7.1h0.041V7.116L31.97,7.144V7.158H32V7.172h0.027V7.186h0.027V7.2h0.027V7.214H32.1V7.229h0.027V7.243h0.027V7.257h0.027V7.271h0.027L32.227,7.3l0.054,0.014,0.014,0.028,0.054,0.014,0.014,0.028L32.416,7.4l0.014,0.028h0.027V7.44L32.5,7.454l0.014,0.028h0.027l0.027,0.042h0.027l0.014,0.028h0.027L32.659,7.6h0.027l0.041,0.056h0.027l0.054,0.071h0.027L32.9,7.807H32.93L33.024,7.92,33.214,8.1V8.132L33.295,8.2V8.23l0.068,0.056V8.315L33.4,8.343V8.371L33.444,8.4V8.428l0.041,0.028V8.484L33.511,8.5l0.014,0.042h0.014V8.569l0.027,0.014V8.611l0.027,0.014V8.654l0.027,0.014L33.633,8.71h0.014V8.738H33.66V8.766l0.027,0.014,0.027,0.085a4.7,4.7,0,0,1,.379.889V9.81h0.014V9.853H34.12V9.9h0.014V9.952h0.014v0.056H34.16v0.056h0.014v0.056h0.013v0.056H34.2v0.071h0.014L34.228,10.4h0.014v0.085h0.014v0.1h0.014v0.127h0.014V10.9H34.3a1.956,1.956,0,0,1-.014.451v0.169H34.269l-0.027.31H34.228l-0.014.141H34.2l-0.027.169H34.16l-0.014.113H34.133v0.042H34.12v0.042H34.106v0.042H34.093v0.042H34.079l-0.027.127H34.039v0.028H34.025l-0.014.085H34l-0.014.056H33.971v0.042H33.958l-0.014.056H33.931v0.042H33.917l-0.027.085H33.876v0.028H33.863V13H33.849v0.028H33.836v0.028H33.822v0.028H33.809v0.028H33.8V13.14l-0.027.014-0.027.085-0.027.014-0.027.085H33.674l-0.014.042-0.027.014-0.014.056H33.606l-0.014.042-0.027.014v0.028l-0.027.014v0.028H33.525l-0.014.042-0.027.014v0.028l-0.041.028v0.028l-0.027.014v0.028l-0.041.028v0.028l-0.041.028v0.028l-0.054.042v0.028l-0.054.042v0.028l-0.068.056V14.1l-0.054.042L33,14.269H32.97l-0.027.042H32.916l-0.014.028H32.876v0.014H32.849v0.014H32.808v0.014H32.768V14.4H32.713V14.41a0.391,0.391,0,0,1-.27-0.056l-0.054-.014-0.014-.028H32.348l-0.041-.056-0.095-.085V14.142l-0.041-.028V14.085l-0.027-.014-0.014-.056H32.118V13.987H32.1V13.958H32.091V13.93H32.078V13.9H32.064l-0.014-.056H32.037l-0.014-.056H32.01V13.761l-0.027-.014V13.718H31.97V13.69H31.956V13.662H31.943V13.634H31.929V13.606H31.916V13.577H31.9V13.549H31.888V13.521H31.875V13.493H31.861V13.465l-0.027-.014V13.422H31.821V13.394H31.807V13.366H31.794V13.338H31.78V13.309L31.753,13.3V13.267H31.74V13.239H31.726V13.211H31.713V13.182l-0.027-.014V13.14H31.672V13.112H31.659V13.084H31.645V13.055l-0.027-.014V13.013H31.6V12.985l-0.027-.014-0.027-.085-0.027-.014-0.014-.056L31.483,12.8l-0.014-.056-0.027-.014-0.014-.056L31.4,12.66,31.388,12.6l-0.027-.014V12.562H31.348V12.533H31.334l-0.014-.042-0.027-.014-0.013-.056-0.027-.014V12.378l-0.027-.014V12.336L31.2,12.322V12.294l-0.027-.014-0.014-.056-0.027-.014V12.181L31.1,12.167V12.138l-0.027-.014V12.1l-0.027-.014V12.054l-0.027-.014V12.011L31,12V11.969H30.982l-0.013-.042-0.027-.014V11.884L30.9,11.856V11.828l-0.027-.014V11.786H30.861l-0.014-.042-0.027-.014V11.7l-0.041-.028V11.645l-0.027-.014V11.6l-0.027-.014-0.014-.042-0.041-.028V11.489l-0.027-.014V11.447l-0.027-.014L30.6,11.391l-0.041-.028V11.334l-0.041-.028V11.278l-0.041-.028V11.221l-0.04-.028V11.165l-0.054-.042V11.094l-0.041-.028V11.038L30.293,11V10.967l-0.054-.042V10.9l-0.054-.042V10.826l-0.054-.042V10.756L30.063,10.7V10.671L30,10.615V10.586l-0.081-.071V10.488l-0.081-.071V10.389L29.738,10.3V10.276l-0.122-.113V10.135L29.454,9.98a2.7,2.7,0,0,0-.3-0.325A4.1,4.1,0,0,0,28.7,9.19l-0.068-.085-0.068-.056L28.548,9.02H28.521l-0.108-.127H28.386l-0.081-.1H28.278L28.2,8.7H28.17L28.1,8.611H28.075l-0.014-.028H28.048l-0.027-.042H27.994L27.94,8.47H27.913l-0.041-.056H27.845L27.8,8.357H27.777L27.737,8.3H27.71l-0.095-.113-0.068-.056a0.6,0.6,0,0,1-.108-0.409A0.925,0.925,0,0,1,28.1,7.2L28.2,7.186V7.172h0.041V7.158h0.04V7.144h0.041V7.13h0.041V7.116H28.4V7.1h0.054V7.087h0.041V7.073h0.041V7.059l0.095-.014V7.031l0.095-.014V7l0.095-.014V6.975l0.095-.014V6.946l0.108-.014V6.918h0.041V6.9h0.054V6.89H29.17V6.876l0.095-.014V6.848h0.054V6.834l0.108-.014c0.1-.034.214-0.065,0.311-0.1h0.054V6.707h0.054V6.692l0.095-.014V6.664Zm-17.5,3.823a0.123,0.123,0,0,0,.027.056h0.014l0.014,0.07H12.51a0.385,0.385,0,0,1-.013.169v0.071H12.483V10.9H12.469v0.042H12.455v0.042H12.442V11.01H12.428v0.028H12.415v0.028l-0.027.014v0.028H12.374a0.159,0.159,0,0,0-.041.071H12.307a0.247,0.247,0,0,1-.108.085l-0.027.042H12.144l-0.027.042H12.09L12.05,11.4H12.023l-0.014.028H12l-0.013.028H11.955l-0.054.07H11.874l-0.068.085a2.714,2.714,0,0,0-.325.3,2.928,2.928,0,0,0-.3.353l-0.081.071v0.028l-0.068.056v0.028l-0.054.042v0.028l-0.041.028v0.028L10.9,12.6v0.028l-0.041.028v0.028l-0.041.028v0.028l-0.041.028V12.8H10.765l-0.014.042-0.027.014v0.028l-0.041.028v0.028l-0.027.014v0.028L10.63,13l-0.013.042H10.6V13.07H10.589V13.1l-0.027.014V13.14l-0.027.014-0.014.056H10.508l-0.014.042-0.027.014-0.013.056-0.027.014-0.027.085-0.027.014v0.028H10.359v0.028H10.346v0.028H10.332v0.028l-0.027.014-0.095.226-0.027.014-0.014.056H10.157l-0.013.056H10.129v0.042H10.116l-0.014.056H10.089v0.028H10.075v0.028H10.062l-0.027.085H10.021V14.2H10.008v0.028H9.994v0.028H9.981v0.028H9.967v0.042H9.954l-0.014.056H9.927v0.042H9.913L9.9,
	14.48H9.886v0.042H9.872v0.028H9.859v0.042H9.845v0.028H9.832l-0.014.071H9.8v0.042H9.791v0.028H9.778l-0.014.085H9.751v0.028H9.737L9.71,15H9.7v0.028H9.683l-0.068.254c-0.063.166-.117,0.365-0.176,0.536L9.4,16H9.386v0.028H9.372v0.042H9.359l-0.014.056H9.332l-0.014.07H9.3v0.042H9.291v0.028H9.277v0.042H9.264l-0.014.056H9.237v0.042H9.223L9.21,16.47H9.2v0.042H9.183L9.156,16.6H9.142v0.028H9.129v0.028H9.115v0.028H9.1v0.028H9.088v0.028H9.075v0.028H9.061v0.028l-0.027.014-0.014.056-0.027.014v0.028l-0.027.014v0.028l-0.041.028v0.028l-0.095.085-0.081.1H8.723l-0.014.028-0.041.014v0.014H8.642V17.26l-0.054.014v0.014L8.507,17.3v0.014H8.453V17.33H8.385v0.014A0.821,0.821,0,0,1,8.1,17.33l-0.243-.042-0.311-.141V17.133l-0.041-.014L7.492,17.09H7.465l-0.027-.042H7.411l-0.095-.113-0.054-.042V16.865l-0.041-.028V16.808l-0.027-.014V16.766l-0.027-.014L7.154,16.7H7.141V16.667H7.127L7.1,16.583H7.087V16.54H7.073V16.5H7.06V16.456H7.046V16.413H7.033V16.371H7.019V16.3H7.006V16.244H6.992V16.159H6.979V16.046H6.965V15.863H6.951l0.014-.494H6.979l0.027-.31H7.019v-0.07H7.033V14.918H7.046V14.847H7.06V14.791H7.073V14.734H7.087V14.678H7.1l0.014-.1H7.127V14.537H7.141V14.494H7.154l0.027-.141H7.195V14.325H7.208L7.235,14.2H7.249V14.17H7.262l0.014-.085H7.29L7.3,14.029H7.317V13.987H7.33l0.014-.056H7.357V13.888H7.371V13.86H7.384L7.4,13.8H7.411V13.761H7.425l0.027-.085H7.465V13.648H7.479V13.62H7.492l0.027-.085,0.027-.014V13.493H7.56V13.465H7.574V13.436H7.587V13.408H7.6V13.38l0.027-.014,0.027-.085,0.027-.014V13.239H7.7V13.211L7.722,13.2l0.014-.056,0.027-.014V13.1H7.776V13.07L7.8,13.055V13.027l0.027-.014V12.985l0.027-.014V12.943l0.027-.014V12.9l0.027-.014V12.858H7.925l0.014-.042L7.966,12.8V12.773l0.041-.028V12.717l0.041-.028V12.66l0.027-.014V12.618l0.041-.028V12.562l0.054-.042V12.491l0.041-.028V12.435l0.068-.056V12.35l0.068-.056V12.265l0.081-.071V12.167l0.122-.113V12.025l0.162-.155a3.113,3.113,0,0,1,.365-0.353l0.068-.085H9.169l0.054-.071H9.25l0.041-.056H9.318l0.041-.056H9.386l0.027-.042,0.041-.014,0.014-.028H9.494l0.014-.028H9.534l0.027-.042H9.589L9.6,11.066H9.629l0.014-.028H9.67l0.014-.028H9.71l0.014-.028H9.751l0.014-.028H9.791L9.8,10.925H9.832V10.911H9.859l0.014-.028,0.054-.014L9.94,10.84H9.967V10.826H9.994l0.014-.028h0.027V10.784h0.027V10.77h0.027V10.756h0.027l0.014-.028,0.081-.028V10.685h0.027V10.671h0.027V10.657l0.081-.028V10.615h0.041V10.6h0.027V10.586l0.054-.014V10.558h0.041V10.544l0.054-.014V10.516l0.487-.169,0.122-.014V10.318h0.054V10.3h0.068V10.29H11.36V10.276h0.081V10.262h0.095V10.248h0.149a0.286,0.286,0,0,1,.135-0.014v0.014h0.108v0.014l0.122,0.014V10.29H12.09l0.216,0.1V10.4h0.027l0.014,0.028h0.027v0.014A0.147,0.147,0,0,0,12.442,10.488Zm9.331,0.621V11.066l0.041-.028V11.01l0.054-.042V10.939L22,10.812l0.054-.07h0.027l0.027-.042,0.041-.014,0.013-.028,0.054-.014,0.014-.028,0.311-.141,0.176-.028a1.564,1.564,0,0,1,.433-0.042h0.176v0.014l0.46,0.014v0.014H23.9v0.014h0.095v0.014l0.162,0.014V10.5l0.122,0.014V10.53h0.054v0.014h0.054v0.014h0.054v0.014h0.041v0.014h0.054V10.6h0.04v0.014h0.041v0.014h0.041v0.014h0.04v0.014l0.081,0.014v0.014H24.8V10.7h0.041v0.014H24.87v0.014H24.91v0.014h0.027v0.014h0.041V10.77l0.054,0.014V10.8h0.041v0.014H25.1v0.014l0.054,0.014v0.014h0.027v0.014h0.027v0.014h0.027V10.9h0.027v0.014h0.027v0.014h0.027v0.014h0.027v0.014H25.37v0.014H25.4v0.014h0.027V11h0.027l0.014,0.028,0.081,0.028L25.56,11.08h0.027v0.014h0.027v0.014l0.041,0.014,0.014,0.028,0.054,0.014v0.014l0.041,0.014,0.014,0.028H25.8v0.014l0.04,0.014,0.014,0.028h0.027l0.027,0.042h0.027l0.014,0.028h0.027l0.027,0.042h0.027l0.027,0.042h0.027l0.027,0.042h0.027l0.041,0.056h0.027L26.263,11.6H26.29l0.068,0.085h0.027l0.081,0.1h0.014l0.014,0.028H26.52l0.135,0.155,0.122,0.113V12.11l0.135,0.127v0.028l0.068,0.056V12.35h0.013l0.027,0.042,0.027,0.014v0.028L27.1,12.477v0.028l0.041,0.028v0.028l0.041,0.028v0.028l0.041,0.028v0.028l0.027,0.014v0.028l0.041,0.028v0.028l0.027,0.014,0.014,0.042h0.014v0.028l0.027,0.014,0.014,0.042H27.4l0.013,0.056,0.027,0.014,0.014,0.056,0.027,0.014,0.014,0.056,0.027,0.014,0.027,0.085,0.027,0.014v0.028h0.014v0.028H27.6v0.028h0.014v0.028h0.013v0.028h0.014v0.028h0.014v0.028h0.014V13.45h0.014l0.027,0.085h0.014l0.014,0.071H27.75v0.028h0.014v0.042h0.014l0.014,0.056H27.8l0.014,0.085h0.014v0.028h0.014l0.081,0.3H27.94V14.2h0.014v0.042h0.014V14.3H27.98v0.056h0.014v0.071h0.014V14.48h0.014v0.085h0.014V14.65h0.013v0.085h0.014v0.127h0.014v0.226h0.014v0.169H28.075v0.2H28.061v0.113H28.048v0.071H28.034l-0.014.127H28.007l-0.014.085H27.98l-0.014.085H27.953L27.94,16H27.926l-0.014.056H27.9l-0.014.056-0.027.014v0.028H27.845l-0.014.042-0.027.014v0.028l-0.054.042v0.028l-0.054.042-0.068.085H27.6l-0.027.042H27.548l-0.027.042-0.054.014-0.014.028-0.081.028v0.014H27.345v0.014H27.3v0.014H27.277v0.014l-0.135.028a0.6,0.6,0,0,1-.284.028l-0.23-.085V16.611L26.587,16.6l-0.014-.028H26.547l-0.027-.042H26.493l-0.081-.1-0.068-.056V16.343L26.29,16.3V16.272l-0.041-.028V16.216l-0.04-.028V16.159l-0.027-.014L26.168,16.1H26.155V16.075l-0.027-.014-0.014-.042H26.1l-0.014-.056H26.073l-0.014-.042-0.027-.014-0.014-.056H26.006l-0.014-.042-0.027-.014-0.014-.056-0.027-.014L25.9,15.637l-0.027-.014V15.595H25.857V15.567H25.844V15.538H25.83V15.51L25.8,15.5V15.468H25.789V15.44H25.776V15.412H25.762V15.383H25.749V15.355H25.735V15.327H25.722V15.3H25.708l-0.027-.085L25.654,15.2V15.172H25.641V15.143H25.627V15.115H25.614V15.087H25.6V15.059H25.587V15.031H25.573V15H25.56V14.974H25.546V14.946H25.533V14.918H25.519l-0.014-.056-0.027-.014V14.819H25.465V14.791H25.451V14.763H25.438V14.734H25.424V14.706L25.4,14.692l-0.027-.085-0.027-.014-0.014-.056H25.316L25.3,14.494l-0.027-.014-0.014-.056H25.249l-0.014-.042-0.027-.014V14.339l-0.04-.028V14.283l-0.027-.014V14.241L25.086,14.2V14.17l-0.054-.042a3.953,3.953,0,0,0-.433-0.48,3.973,
	3.973,0,0,0-.446-0.451l-0.162-.183H23.964l-0.135-.155H23.8l-0.108-.127H23.666L23.558,12.6H23.531l-0.095-.113H23.409l-0.081-.1H23.3l-0.095-.113H23.179l-0.027-.042L23.1,12.195V12.181H23.071l-0.095-.113H22.95l-0.081-.1H22.841l-0.095-.113H22.72l-0.108-.127H22.584l-0.081-.1H22.476l-0.054-.07H22.4l-0.027-.042-0.04-.014-0.014-.028H22.287l-0.014-.028H22.246L22.219,11.4H22.192l-0.014-.028-0.041-.014V11.348H22.111L22.1,11.32H22.071l-0.014-.028H22.03V11.278l-0.041-.014-0.014-.028H21.949l-0.013-.028H21.908l-0.027-.042H21.854l-0.014-.028H21.814V11.123Zm-4.165-.494a1.488,1.488,0,0,1,.5.085h0.081c0.106,0.034.247,0.05,0.352,0.085L18.676,10.8v0.014L18.8,10.826V10.84l0.108,0.014v0.014l0.108,0.014V10.9h0.041v0.014l0.095,0.014v0.014H19.2v0.014h0.04v0.014h0.041v0.014h0.041V11l0.081,0.014v0.014h0.027v0.014l0.081,0.014v0.014h0.027V11.08h0.041v0.014l0.054,0.014v0.014h0.041v0.014l0.081,0.028v0.014h0.027v0.014l0.081,0.028L19.88,11.25l0.054,0.014,0.014,0.028h0.027v0.014l0.041,0.014,0.014,0.028h0.027l0.027,0.042H20.11l0.068,0.085H20.2l0.054,0.071,0.027,0.014v0.028l0.068,0.056v0.028l0.04,0.028v0.028l0.027,0.014v0.028l0.027,0.014,0.014,0.056h0.014L20.5,11.927h0.014l0.081,0.3a1.156,1.156,0,0,1-.027.395v0.056H20.556v0.042H20.542v0.042H20.529V12.8H20.515v0.042H20.5l-0.027.085H20.461v0.028H20.448l-0.014.056-0.027.014v0.028l-0.027.014V13.1l-0.027.014V13.14l-0.041.028V13.2l-0.068.056v0.028l-0.041.028-0.095.113H20.083l-0.054.07H20l-0.014.028H19.974l-0.014.028H19.934l-0.014.028H19.893l-0.027.042-0.054.014-0.014.028H19.772l-0.014.028H19.731l-0.014.028-0.054.014v0.014l-0.041.014-0.014.028H19.582l-0.014.028-0.054.014L19.5,13.86l-0.054.014-0.014.028-0.081.028-0.014.028-0.054.014v0.014H19.258V14l-0.081.028v0.014H19.136v0.014l-0.081.028V14.1H19.028v0.014l-0.054.014-0.014.028H18.933V14.17H18.906v0.014H18.879V14.2H18.852v0.014H18.825l-0.014.028-0.054.014-0.014.028L18.69,14.3l-0.013.028H18.649l-0.014.028H18.609l-0.027.042H18.555l-0.027.042H18.5l-0.027.042H18.446l-0.135.155-0.108.1v0.028l-0.041.028v0.028l-0.027.014v0.028l-0.027.014-0.014.057-0.027.014L18.054,15H18.041l-0.014.056H18.014L18,15.129H17.987l-0.014.085H17.959l-0.013.113H17.932l-0.014.2H17.905a0.987,0.987,0,0,0,.014.31v0.141L18,16.371h0.014v0.042h0.014v0.042h0.014V16.5h0.013l0.014,0.085h0.014v0.028h0.014v0.042h0.014v0.028h0.014v0.042h0.014l0.027,0.085h0.014v0.028h0.014v0.028H18.2v0.028h0.014v0.028H18.23v0.028h0.014v0.028h0.014v0.028h0.014v0.028L18.3,17.048,18.311,17.1h0.014l0.014,0.042,0.027,0.014,0.014,0.056,0.041,0.028v0.028l0.027,0.014v0.028l0.027,0.014,0.014,0.042,0.054,0.042v0.028L18.609,17.5v0.028l0.068,0.056L18.8,17.725h0.027L18.879,17.8h0.027l0.014,0.028h0.014l0.014,0.028h0.027l0.014,0.028h0.027l0.014,0.028h0.027l0.014,0.028H19.1l0.013,0.028,0.081,0.028L19.2,18.022l0.122,0.042v0.014l0.054,0.014v0.014h0.04V18.12h0.041v0.014H19.5v0.014h0.041v0.014H19.6v0.014h0.068v0.014h0.081V18.2h0.095v0.014h0.068v0.014l0.149,0.014v0.014H20.11v0.014h0.054V18.29h0.054V18.3h0.054v0.014h0.054v0.014h0.041v0.014h0.041V18.36h0.041v0.014h0.041v0.014h0.041V18.4l0.081,0.014v0.014h0.027v0.014h0.041v0.014H20.7v0.014h0.041v0.014L20.8,18.5v0.014h0.027v0.014h0.041v0.014l0.054,0.014v0.014l0.054,0.014,0.014,0.028h0.027v0.014h0.027v0.014H21.07v0.014H21.1l0.014,0.028L21.165,18.7v0.014l0.04,0.014,0.014,0.028h0.027v0.014l0.041,0.014L21.3,18.812h0.027l0.027,0.042h0.027L21.408,18.9h0.027l0.041,0.056H21.5l0.068,0.085H21.6l0.122,0.141,0.135,0.127v0.028l0.081,0.07v0.028l0.054,0.042V19.5l0.041,0.028v0.028l0.041,0.028v0.028l0.041,0.028v0.028l0.027,0.014v0.028l0.027,0.014v0.028l0.027,0.014V19.8l0.027,0.014,0.014,0.056,0.027,0.014v0.028h0.014V19.94L22.3,19.954l0.027,0.085,0.027,0.014v0.028h0.013V20.11h0.014v0.028H22.4v0.028h0.014v0.028h0.014v0.028h0.014l0.014,0.056h0.014v0.028h0.013v0.028H22.49v0.028H22.5v0.028h0.014l0.014,0.056h0.014v0.028h0.014v0.042h0.014l0.013,0.056H22.6v0.042h0.014v0.028h0.014v0.042h0.014l0.014,0.056h0.014v0.042h0.014v0.042h0.014v0.028h0.014l0.014,0.085h0.014V20.97h0.014v0.042H22.76v0.042h0.014V21.1h0.014V21.14c0.115,0.276.179,0.6,0.27,0.9l0.081,0.522v0.183h0.014a1.109,1.109,0,0,1-.014.339v0.169H23.125v0.1H23.112L23.1,23.51l-0.122.409H22.963L22.936,24H22.923v0.028H22.909V24.06H22.9v0.028H22.882v0.028l-0.027.014v0.028H22.841v0.028l-0.027.014v0.028l-0.027.014v0.028l-0.054.042v0.028l-0.068.056v0.028l-0.081.071-0.013.028H22.544l-0.054.07H22.463l-0.014.028H22.436l-0.014.028H22.4l-0.014.028-0.041.014v0.014l-0.054.014-0.014.028-0.054.014v0.014H22.192v0.014l-0.081.028v0.014H22.071V24.85H22.044v0.014H22v0.014H21.962v0.014h-0.04v0.014H21.881v0.014l-0.108.014a1.732,1.732,0,0,1-.555.071H21V24.991H20.867l-0.46-.085-0.541-.169V24.723H19.839V24.709H19.8V24.695H19.758V24.681h-0.04V24.667H19.677V24.653H19.65V24.638l-0.081-.014V24.61H19.542V24.6H19.5V24.582H19.474V24.568l-0.243-.085V24.469l-0.054-.014V24.441H19.136V24.427H19.109V24.413L19.055,24.4V24.384H19.014V24.37l-0.081-.028V24.328l-0.068-.014V24.3H18.838V24.286l-0.054-.014V24.257l-0.054-.014V24.229H18.7V24.215H18.676V24.2H18.649V24.187H18.622V24.173l-0.216-.1-0.014-.028-0.054-.014V24.018H18.311V24H18.284l-0.014-.028H18.243V23.961H18.216V23.947H18.189V23.933H18.162L18.149,23.9H18.122V23.891H18.095l-0.014-.028L18,23.834V23.82l-0.041-.014-0.013-.028H17.919V23.764H17.892l-0.014-.028-0.054-.014-0.014-.028H17.784l-0.014-.028H17.743l-0.014-.028H17.7l-0.014-.028-0.054-.014V23.58l-0.041-.014-0.014-.028H17.554L17.527,23.5H17.5l-0.014-.028H17.459V23.453l-0.041-.014-0.014-.028H17.378l-0.014-.028-0.041-.014L17.3,23.326H17.27L17.256,23.3H17.229L17.2,23.256H17.175l-0.027-.042H17.121l-0.041-.056H17.053l-0.027-.042H17l-0.041-.056H16.932L16.891,23H16.864l-0.054-.071H16.783l-0.054-.07H16.7l-0.068-.085H16.607l-0.095-.113H16.485l-0.162-.183H16.3L16.2,22.367l-0.23-.226V22.113l-0.135-.127-0.081-.113-0.068-.056V21.789L15.593,21.7V21.676l-0.068-.056V21.591l-0.068-.056V21.506L15.4,21.464V21.436l-0.054-.042V21.365L15.3,21.323V21.295l-0.04-.028V21.238l-0.041-.028V21.182l-0.041-.028V21.125l-0.04-.028-0.014-.042-0.027-.014V21.013L15.065,21V20.97l-0.04-.028V20.914L15,20.9V20.871l-0.04-.028V20.815L14.93,20.8l-0.013-.042H14.9V20.73l-0.027-.014V20.688l-0.027-.014V20.646l-0.027-.014V20.6L14.8,20.589V20.561l-0.027-.014V20.519L14.741,20.5V20.476l-0.027-.014L14.7,20.406l-0.027-.014V20.364l-0.027-.014-0.014-.056-0.027-.014-0.014-.056-0.027-.014-0.013-.056-0.027-.014-0.014-.056-0.027-.014-0.014-.056L14.443,
	20,14.43,19.94H14.416V19.912L14.389,19.9V19.87H14.376V19.842H14.362V19.813H14.349V19.785H14.335V19.757l-0.027-.014-0.027-.085H14.268V19.63H14.254V19.6H14.241l-0.027-.085H14.2V19.475H14.186l-0.014-.056H14.159V19.376H14.146V19.348H14.132V19.305H14.119V19.263H14.105V19.221H14.092V19.178H14.078V19.122H14.065V19.051H14.051v-0.1H14.038v-0.1h0.014V18.769h0.014V18.713h0.014l0.027-.085h0.014V18.6l0.041-.028V18.544l0.04-.028V18.5h0.027l0.041-.056h0.027l0.013-.028h0.027V18.4h0.027V18.388h0.027V18.374h0.027V18.36h0.027V18.346l0.054-.014V18.318l0.122-.028V18.276H14.66V18.261H14.7V18.247h0.041V18.233l0.108-.014V18.2l0.108-.014V18.177h0.068V18.163h0.068V18.149H15.16V18.134h0.068V18.12l0.257-.042V18.064l0.095-.014V18.036H15.62V18.022l0.095-.014V17.993h0.027V17.979l0.081-.014V17.951H15.85V17.937H15.89V17.923l0.054-.014V17.895h0.04V17.88l0.081-.028V17.838l0.054-.014,0.014-.028,0.081-.028,0.014-.028h0.027l0.013-.028H16.3l0.014-.028h0.027l0.014-.028h0.027l0.041-.056h0.027l0.068-.085H16.54l0.068-.085,0.027-.014V17.387l0.081-.071V17.288l0.054-.042V17.217l0.04-.028V17.161l0.027-.014V17.119l0.027-.014,0.014-.057,0.027-.014V17.006h0.014V16.978h0.014V16.949h0.014V16.921h0.014V16.893h0.014V16.865h0.014V16.836H17l0.027-.085H17.04V16.709h0.014V16.681h0.014V16.639H17.08V16.611h0.014l0.014-.085h0.013V16.484h0.014l0.014-.1h0.014V16.328h0.014l0.014-.141H17.2v-0.1h0.013a1.54,1.54,0,0,0-.013-0.381v-0.1H17.189V15.553H17.175V15.5H17.162V15.44H17.148V15.4H17.135V15.369H17.121V15.327H17.108l-0.027-.085H17.067V15.214H17.053l-0.014-.056H17.026l-0.014-.042L16.986,15.1V15.073H16.972l-0.014-.042-0.027-.014V14.988l-0.054-.042V14.918L16.8,14.847l-0.135-.155H16.634l-0.054-.071H16.553l-0.027-.042-0.041-.014-0.013-.028H16.445l-0.014-.028H16.4l-0.014-.028L16,14.255h-0.04V14.241H15.931V14.226l-0.054-.014V14.2h-0.04V14.184H15.809V14.17h-0.04V14.156l-0.054-.014V14.128H15.674V14.114H15.633V14.1H15.606V14.085H15.566V14.071H15.539V14.057l-0.081-.014V14.029H15.431V14.015H15.39V14H15.363V13.987l-0.081-.014V13.958l-0.068-.014V13.93H15.187V13.916H15.147V13.9H15.12V13.888h-0.04V13.874l-0.054-.014V13.845H14.984V13.831L14.9,13.8V13.789l-0.054-.014-0.014-.028-0.054-.014L14.768,13.7l-0.054-.014L14.7,13.662H14.673l-0.027-.042H14.619l-0.027-.042H14.565L14.5,13.493l-0.135-.127V13.338l-0.04-.028V13.281l-0.027-.014V13.239l-0.027-.014-0.014-.056H14.241l-0.027-.085H14.2l-0.027-.127H14.159a1.451,1.451,0,0,1-.027-0.437h0.014V12.435h0.014V12.378h0.014V12.336h0.014V12.294H14.2V12.251h0.014V12.209h0.014V12.181h0.014V12.138h0.013l0.014-.056h0.014V12.054l0.027-.014,0.027-.085,0.027-.014V11.913h0.014l0.014-.042,0.027-.014V11.828l0.041-.028V11.772l0.041-.028,0.013-.042,0.122-.113V11.56l0.027-.014,0.054-.071h0.027l0.095-.113h0.027l0.041-.056H14.93l0.014-.028h0.027L15,11.235h0.027l0.013-.028,0.041-.014V11.179l0.054-.014,0.013-.028h0.027V11.123H15.2V11.108h0.027V11.094h0.027l0.014-.028,0.068-.014V11.038h0.027V11.024l0.054-.014V11h0.041V10.981h0.027V10.967h0.04V10.953h0.027V10.939l0.081-.014V10.911h0.041V10.9h0.041V10.883l0.095-.014V10.854h0.054V10.84l0.108-.014V10.812l0.122-.014V10.784l0.149-.014V10.756l0.189-.014V10.728h0.095V10.713h0.122V10.7h0.122V10.685h0.149V10.671H17.08V10.657h0.162V10.643l0.243-.014A0.22,0.22,0,0,0,17.608,10.615Zm15.457,5.841a2.363,2.363,0,0,0,.095.367l0.027,0.169H33.2v0.056h0.014V17.09h0.014v0.056h0.014V17.2h0.014V17.26h0.014l0.014,0.1h0.014l0.23,1.016v0.085c0.03,0.1.038,0.246,0.068,0.353v0.113h0.014v0.113h0.014v0.127h0.014v0.127h0.014v0.141H33.66V19.6h0.014v0.169h0.014Q33.694,20,33.7,20.222h0.014v0.353a3.347,3.347,0,0,1,.014.635,1.588,1.588,0,0,1-.014.339V21.9H33.7v0.254H33.687v0.2H33.674v0.169H33.66v0.155H33.647v0.141c-0.039.139-.03,0.329-0.068,0.466V23.4c-0.039.137-.042,0.316-0.081,0.451v0.085c-0.019.066-.035,0.162-0.054,0.226v0.085c-0.079.267-.105,0.574-0.189,0.832v0.056H33.241v0.056H33.227v0.056H33.214V25.3H33.2l-0.027.155H33.16l-0.027.155H33.119l-0.014.1H33.092v0.042H33.079V25.8H33.065l-0.027.141H33.024v0.056H33.011L33,26.077H32.984V26.12H32.97v0.042H32.957V26.2H32.943v0.042H32.93v0.042H32.916l-0.014.085H32.889l-0.014.085H32.862V26.5H32.849v0.042H32.835v0.042H32.822v0.042H32.808V26.67H32.795V26.7H32.781l-0.027.127H32.74v0.028H32.727l-0.014.085H32.7v0.028H32.686v0.042H32.673v0.042H32.659v0.028H32.646v0.042H32.632V27.15H32.619l-0.013.07H32.592v0.042H32.578v0.028H32.565v0.042H32.551v0.028H32.538V27.4H32.524v0.028H32.511v0.042H32.5l-0.014.056H32.47v0.042H32.456l-0.014.056H32.429v0.042H32.416l-0.014.056H32.389V27.77H32.375V27.8H32.362l-0.014.056H32.335V27.9H32.321v0.028H32.308l-0.027.085H32.267v0.042H32.254l-0.027.085H32.213l-0.027.085H32.172l-0.014.056H32.145v0.042H32.132l-0.027.085H32.091v0.028H32.078v0.028H32.064V28.49H32.051v0.028H32.037v0.028H32.024v0.028H32.01V28.6H32v0.028H31.983v0.028l-0.027.014V28.7H31.943V28.73H31.929v0.028H31.916v0.028H31.9v0.028H31.888v0.028H31.875v0.028H31.861V28.9H31.848v0.028l-0.027.014V28.97H31.807V29H31.794v0.028H31.78v0.028H31.767v0.028L31.74,29.1v0.028H31.726v0.028H31.713v0.028H31.7V29.21l-0.027.014-0.027.085-0.027.014v0.028H31.6v0.028l-0.027.014-0.027.085-0.027.014-0.014.056-0.027.014-0.014.056-0.027.014-0.014.056L31.4,29.7v0.028H31.388V29.76H31.375l-0.014.042-0.027.014-0.014.056-0.027.014v0.028l-0.027.014v0.028l-0.027.014-0.014.056-0.027.014V30.07l-0.027.014v0.028l-0.027.014v0.028l-0.027.014V30.2l-0.027.014v0.028H31.077l-0.014.042-0.027.014v0.028l-0.027.014v0.028H31l-0.014.042-0.027.014v0.028l-0.041.028v0.028H30.9l-0.014.042-0.027.014v0.028l-0.041.028v0.028l-0.027.014v0.028l-0.041.028v0.028l-0.027.014V30.79L30.7,30.8l-0.014.042-0.041.028V30.9l-0.041.028v0.028l-0.041.028v0.028l-0.041.028v0.028l-0.041.028v0.028l-0.04.028v0.028l-0.054.042v0.028l-0.041.028v0.028l-0.054.042v0.028l-0.054.042v0.028l-0.068.056v0.028l-0.027.014v0.014l-0.027.014v0.028l-0.068.056v0.028l-0.081.071v0.028l-0.081.071V31.89l-0.095.085V32l-0.108.1V32.13l-0.149.141V32.3l-0.27.268V32.6l-0.135.127-0.122.141H28.981l-0.257.282H28.7l-0.135.155H28.535l-0.095.113H28.413l-0.081.1H28.3l-0.068.085H28.21l-0.068.085H28.115l-0.054.071H28.034l-0.041.056H27.967l-0.054.071H27.886l-0.041.056H27.818l-0.014.028H27.791l-0.014.028H27.75l-0.014.028-0.041.014-0.041.056H27.629l-0.027.042H27.575l-0.027.042H27.52l-0.027.042H27.466l-0.027.042H27.412l-0.027.042H27.358l-0.027.042-0.041.014-0.014.028H27.25l-0.014.028H27.209l-0.027.042H27.155l-0.014.028H27.115l-0.027.042H27.061v0.014l-0.041.014-0.014.028H26.98l-0.027.042H26.925l-0.014.028-0.041.014v0.014H26.844l-0.014.028H26.8l-0.014.028H26.763l-0.014.028H26.723l-0.014.028H26.682l-0.014.028H26.641l-0.014.028H26.6l-0.014.028H26.56l-0.014.028-0.054.014-0.014.028H26.452l-0.014.028-0.054.014v0.014l-0.041.014-0.014.028-0.054.014v0.014l-0.041.014-0.014.028-0.054.014-0.014.028-0.054.014-0.014.028-0.054.014-0.014.028-0.081.028-0.013.028-0.081.028-0.014.028-0.081.028-0.014.028H25.708v0.014H25.681v0.014H25.654V35.46H25.627l-0.014.028-0.081.028V35.53H25.505v0.014H25.478l-0.014.028H25.438v0.014H25.411V35.6H25.384v0.014H25.357v0.014H25.33v0.014H25.3v0.014H25.276v0.014H25.249v0.014H25.222V35.7H25.194l-0.014.028-0.081.028V35.77H25.073v0.014H25.046V35.8l-0.081.028V35.84l-0.122.042V35.9H24.816v0.014H24.789v0.014H24.762v0.014l-0.081.028v0.014H24.64V36H24.613V36.01l-0.081.028v0.014H24.491v0.014H24.464V36.08l-0.054.014v0.014H24.37v0.014H24.342v0.014l-0.054.014v0.014h-0.04v0.014l-0.054.014v0.014l-0.135.042v0.014H24.031v0.014H23.991v0.014H23.964v0.014H23.923V36.32H23.9v0.014l-0.068.014v0.014h-0.04v0.014H23.761v0.014H23.72V36.4H23.693v0.014l-0.081.014v0.014H23.585v0.014l-0.081.014v0.014H23.477V36.5l-0.122.028v0.014H23.328V36.56H23.288v0.014H23.247v0.014H23.207V36.6H23.166v0.014H23.125v0.014H23.1v0.014l-0.081.014v0.014H22.977v0.014H22.936V36.7H22.9v0.014H22.841v0.014H22.8v0.014H22.76v0.014H22.72v0.014H22.679v0.014H22.639V36.8l-0.135.028v0.014l-0.135.028v0.014H22.314V36.9H22.273v0.014l-0.149.028v0.014l-0.149.028V37l-1,.24-0.3.042c-0.15.048-.346,0.052-0.5,0.1l-0.189.014v0.014H19.88v0.014H19.772v0.014H19.65v0.014H19.528v0.014H19.393v0.014H19.244v0.014l-0.636.028v0.014H18.162v0.014H18.027a1.462,1.462,0,0,1-.338-0.014H17.243V37.519c-0.074-.022-0.191.005-0.257-0.014h-0.2V37.491H16.607c-0.158-.047-0.371-0.024-0.527-0.071H15.972c-0.17-.052-0.388-0.047-0.555-0.1l-0.162-.014c-0.084-.027-0.2-0.044-0.284-0.07l-0.149-.014V37.209H14.768V37.195H14.7V37.181H14.633V37.167H14.579V37.153H14.511V37.138l-0.176-.028c-0.213-.072-0.457-0.12-0.663-0.2H13.618V36.9h-0.04V36.885H13.524c-0.241-.092-0.515-0.164-0.744-0.268H12.739V36.6H12.7V36.588H12.658V36.574H12.618V36.56H12.591V36.546l-0.081-.014V36.518H12.483V36.5L12.4,
	36.489V36.475H12.374V36.461l-0.081-.014V36.433H12.266V36.419H12.226V36.4H12.2V36.391l-0.068-.014V36.363H12.09V36.348H12.063V36.334H12.023V36.32l-0.054-.014V36.292H11.928V36.278H11.9V36.264H11.86V36.25l-0.054-.014V36.221h-0.04V36.207l-0.054-.014V36.179H11.671V36.165H11.644V36.151l-0.054-.014V36.123h-0.04V36.109H11.522V36.094l-0.081-.028V36.052H11.4V36.038l-0.054-.014V36.01H11.32V36H11.292V35.982l-0.081-.028V35.939H11.171V35.925H11.144V35.911L11.09,35.9V35.883l-0.054-.014V35.855l-0.054-.014V35.826H10.954V35.812H10.927V35.8H10.9V35.784H10.873V35.77H10.846V35.756H10.819V35.742H10.792V35.728H10.765V35.714H10.738l-0.013-.028H10.7V35.671H10.67V35.657H10.643V35.643H10.616V35.629H10.589V35.615H10.562V35.6H10.535l-0.014-.028H10.495V35.558H10.468V35.544H10.441V35.53H10.413V35.516H10.386l-0.014-.028H10.346V35.474H10.319V35.46H10.292V35.445H10.265l-0.014-.028H10.224V35.4H10.2V35.389H10.17l-0.014-.028-0.081-.028L10.062,35.3l-0.054-.014-0.014-.028L9.94,35.248,9.927,35.22l-0.054-.014-0.014-.028L9.8,35.163l-0.014-.028H9.764V35.121H9.737V35.107L9.7,35.093l-0.014-.028L9.629,35.05l-0.014-.028H9.589l-0.014-.028H9.548l-0.014-.028L9.48,34.952l-0.014-.028H9.44L9.426,34.9H9.4V34.881l-0.041-.014-0.014-.028H9.318L9.3,34.811H9.277l-0.014-.028H9.237l-0.014-.028H9.2l-0.014-.028H9.156L9.142,34.7H9.115V34.684l-0.041-.014-0.014-.028H9.034L9.007,34.6H8.98V34.585l-0.041-.014-0.014-.028H8.9L8.872,34.5H8.845l-0.014-.028H8.8l-0.014-.028L8.75,34.43l-0.027-.042H8.7l-0.014-.028H8.655l-0.027-.042H8.6l-0.027-.042H8.547L8.52,34.232H8.493l-0.041-.056H8.425L8.4,34.133H8.371l-0.027-.042H8.317l-0.041-.056H8.25l-0.014-.028H8.223l-0.014-.028H8.182l-0.041-.056H8.114L8.1,33.894H8.087l-0.014-.028H8.047l-0.041-.056H7.979l-0.027-.042H7.939l-0.014-.028H7.9L7.83,33.654H7.8l-0.054-.07H7.722l-0.081-.1H7.614l-0.095-.113H7.492l-0.108-.127H7.357l-0.176-.2a3.209,3.209,0,0,1-.365-0.367l-0.257-.254V32.4l-0.027-.014V32.37l-0.149-.141V32.2l-0.135-.127V32.045l-0.108-.1V31.918l-0.081-.07V31.82l-0.081-.071V31.721L5.91,31.664V31.636l-0.027-.014L5.856,31.58H5.843V31.552L5.775,31.5V31.467l-0.054-.042V31.4l-0.054-.042V31.326l-0.054-.042V31.255l-0.041-.028V31.2l-0.054-.042V31.128L5.477,31.1V31.072l-0.041-.028V31.015L5.4,30.987V30.959l-0.041-.028V30.9l-0.041-.028L5.3,30.832l-0.027-.014V30.79l-0.027-.014V30.747L5.22,30.733l-0.014-.042-0.041-.028V30.634H5.153l-0.014-.042-0.027-.014V30.55l-0.041-.028V30.493l-0.027-.014V30.451H5.031l-0.014-.042-0.027-.014V30.366L4.95,30.338V30.31L4.923,30.3V30.268L4.9,30.254V30.225l-0.027-.014V30.183l-0.027-.014-0.014-.056H4.815L4.8,30.07l-0.027-.014V30.028l-0.027-.014V29.986L4.72,29.971l-0.014-.042H4.693L4.68,29.873H4.666L4.652,29.83l-0.027-.014L4.612,29.76l-0.027-.014-0.014-.056H4.558l-0.014-.042-0.027-.014L4.5,29.576l-0.027-.014-0.014-.056-0.027-.014-0.027-.085-0.027-.014V29.365H4.369V29.337l-0.027-.014-0.027-.085-0.027-.014-0.014-.056H4.26V29.139H4.247V29.111L4.22,29.1V29.068H4.206V29.04H4.193V29.012H4.179V28.984L4.152,28.97V28.941H4.139V28.913H4.125V28.885H4.112V28.857H4.1V28.829H4.085l-0.014-.057-0.027-.014V28.73H4.03V28.7H4.017V28.673H4V28.645H3.99V28.617H3.976V28.589H3.963V28.561H3.949L3.936,28.5H3.922l-0.014-.056H3.9V28.419H3.882V28.391H3.868V28.363H3.855V28.335H3.841V28.307H3.828L3.814,28.25H3.8V28.222H3.787V28.18H3.773V28.151H3.76V28.123H3.746V28.095H3.733L3.706,28.01H3.692V27.968H3.679V27.94H3.665l-0.027-.085H3.625V27.813H3.611V27.785H3.6l-0.014-.056H3.571V27.686H3.557l-0.014-.056H3.53V27.587H3.517L3.5,27.531H3.489V27.488H3.476V27.46H3.462V27.418H3.449l-0.014-.056H3.422V27.319H3.408V27.291H3.395V27.248H3.381V27.22H3.368l-0.014-.07H3.341V27.107H3.327V27.079H3.314L3.3,26.995c-0.139-.331-0.244-0.707-0.365-1.058V25.88H2.922V25.838H2.908V25.8H2.894V25.739c-0.091-.264-0.145-0.572-0.23-0.847v-0.07H2.651l-0.014-.127H2.624V24.638H2.61L2.6,24.511H2.583L2.57,24.37c-0.041-.137-0.055-0.312-0.095-0.451L2.462,23.75c-0.05-.175-0.045-0.4-0.095-0.578V23.058H2.354V22.931H2.34l-0.014-.268H2.313V22.508H2.3a1.881,1.881,0,0,1,.014-0.437L2.34,21.8a1.914,1.914,0,0,1,.243-0.536l0.108-.1,0.027-.042H2.746l0.027-.042H2.8l0.014-.028H2.84l0.014-.028,0.041-.014V21l0.054-.014V20.97L3,20.956V20.942l0.068-.014V20.914H3.111V20.9H3.151V20.886H3.192V20.871H3.233V20.857l0.176-.028V20.815H3.489a0.927,0.927,0,0,1,.122-0.028H3.733a1.877,1.877,0,0,1,.433-0.014H4.341v0.014H4.558V20.8H4.707v0.014H4.828c0.114,0.035.268,0.036,0.379,0.07H5.288V20.9l0.135,0.014c0.129,0.043.281,0.069,0.406,0.113l0.108,0.014v0.014l0.095,0.014v0.014H6.072V21.1l0.135,0.028V21.14H6.248v0.014H6.289v0.014H6.329v0.014L6.451,21.21v0.014H6.478v0.014L6.6,21.267v0.014H6.627v0.014H6.667v0.014H6.695v0.014l0.068,0.014v0.014H6.8v0.014H6.83v0.014H6.87v0.014H6.9v0.014H6.938v0.014l0.054,0.014V21.45H7.033v0.014H7.06v0.014l0.054,0.014v0.014H7.154V21.52H7.181v0.014H7.208v0.014H7.235v0.014l0.081,0.028v0.014H7.357v0.014H7.384v0.014H7.411v0.014H7.438v0.014H7.465v0.014H7.492V21.69H7.519V21.7H7.546v0.014L7.6,21.732,7.614,21.76H7.641v0.014H7.668v0.014H7.7V21.8H7.722v0.014H7.749v0.014H7.776v0.014H7.8l0.014,0.028H7.844v0.014H7.871V21.9H7.9v0.014H7.925V21.93H7.952l0.014,0.028,0.081,0.028L8.06,22.014H8.087v0.014H8.114l0.014,0.028,0.081,0.028,0.014,0.028,0.054,0.014L8.29,22.155l0.054,0.014L8.358,22.2H8.385L8.4,22.226,8.453,22.24v0.014l0.041,0.014L8.507,22.3l0.054,0.014,0.014,0.028H8.6l0.014,0.028H8.642L8.655,22.4l0.054,0.014,0.014,0.028H8.75l0.014,0.028H8.791L8.8,22.494H8.831v0.014l0.041,0.014L8.885,22.55H8.912l0.014,0.028H8.953l0.014,0.028H8.993v0.014l0.041,0.014,0.014,0.028H9.075L9.1,22.706H9.129l0.014,0.028H9.169v0.014L9.21,22.762,9.223,22.79H9.25l0.027,0.042H9.3v0.014l0.041,0.014,0.014,0.028H9.386l0.027,0.042H9.44L9.453,22.96H9.48l0.014,0.028L9.534,23l0.027,0.042H9.589L9.6,23.072H9.629L9.643,23.1l0.041,0.014L9.71,23.157H9.737l0.014,0.028H9.778L9.8,23.228H9.832L9.859,23.27H9.886l0.027,0.042H9.94L9.954,23.34l0.041,0.014L10.021,23.4h0.027l0.027,0.042H10.1l0.027,0.042h0.027l0.027,0.042h0.027l0.027,0.042h0.027l0.014,0.028,0.041,0.014,0.027,0.042h0.027l0.041,0.056h0.027l0.027,0.042h0.027l0.027,0.042h0.027l0.027,0.042H10.6l0.027,0.042h0.027L10.7,23.933h0.027l0.027,0.042h0.027l0.027,0.042h0.027L10.86,24.06h0.027L10.914,24.1h0.027l0.041,0.056h0.027L11.036,24.2h0.027l0.027,0.042h0.027l0.027,0.042h0.027L11.2,24.328h0.027l0.027,0.042h0.027l0.027,0.042h0.027l0.041,0.056H11.4l0.027,0.042,0.04,0.014,0.014,0.028h0.027L11.536,24.6h0.027l0.027,0.042h0.027l0.027,0.042h0.027L11.7,24.723h0.027l0.027,0.042h0.027l0.027,0.042h0.027L11.86,24.85h0.027l0.027,0.042h0.027l0.027,0.042H12l0.027,0.042H12.05l0.027,0.042H12.1l0.014,0.028h0.027l0.027,0.042H12.2l0.027,0.042h0.027l0.027,0.042h0.027l0.027,0.042h0.027l0.027,0.042h0.027l0.014,0.028h0.027l0.027,0.042H12.51l0.027,0.042h0.027l0.027,0.042h0.027l0.014,0.028h0.027l0.013,0.028,0.041,0.014,0.027,0.042h0.027l0.013,0.028h0.027L12.834,25.6h0.027l0.014,0.028H12.9l0.027,0.042h0.027L12.969,25.7H13l0.014,0.028,0.041,0.014,0.027,0.042H13.1V25.8l0.04,0.014,0.014,0.028h0.027l0.027,0.042H13.24l0.013,0.028H13.28l0.027,0.042h0.027v0.014l0.04,0.014,0.014,0.028h0.027l0.027,0.042H13.47v0.014l0.041,0.014,0.013,0.028h0.027l0.027,0.042H13.6l0.013,0.028h0.027V26.19L13.686,26.2,13.7,26.233h0.027l0.027,0.042h0.027L13.794,26.3l0.041,0.014v0.014h0.027l0.014,0.028H13.9l0.014,0.028h0.027l0.014,0.028h0.027L14,26.444h0.027l0.014,0.028h0.027L14.078,26.5h0.027l0.014,0.028h0.027l0.014,0.028h0.027L14.2,26.585h0.027l0.014,0.028h0.027l0.014,0.028h0.027l0.014,0.028h0.027L14.362,26.7h0.027L14.4,26.726H14.43l0.014,0.028H14.47l0.014,0.028h0.027l0.014,0.028,0.054,0.014,0.014,0.028h0.027l0.014,0.028H14.66l0.014,0.028H14.7l0.014,0.028,0.054,0.014,0.014,0.028h0.027l0.013,0.028h0.027l0.014,0.028,0.054,0.014v0.014l0.041,0.014,0.014,0.028H15v0.014h0.027l0.013,0.028,0.054,0.014v0.014l0.041,0.014,0.013,0.028h0.027v0.014H15.2l0.014,0.028,0.054,0.014L15.282,27.3l0.054,0.014,0.013,0.028L15.4,27.361l0.014,0.028L15.471,27.4l0.014,0.028,0.054,0.014,0.014,0.028,0.054,0.014,0.013,0.028,0.054,0.014v0.014H15.7l0.014,0.028L15.8,27.6l0.014,0.028,0.081,0.028L15.9,27.686l0.081,0.028L16,27.742h0.027v0.014h0.027V27.77H16.08v0.014h0.027l0.014,0.028h0.027v0.014h0.027v0.014H16.2v0.014h0.027l0.014,0.028h0.027V27.9H16.3v0.014h0.027v0.014H16.35V27.94L16.4,27.954l0.014,0.028L16.472,28V28.01H16.5v0.014h0.027v0.014h0.027v0.014H16.58v0.014l0.054,0.014v0.014l0.081,0.028,0.014,0.028h0.027v0.014h0.027V28.18H16.81v0.014h0.027v0.014h0.027v0.014h0.027v0.014h0.027V28.25L17,28.278v0.014l0.068,0.014v0.014h0.027v0.014h0.027v0.014h0.027v0.014h0.027v0.014l0.081,0.028v0.014H17.3v0.014h0.027v0.014l0.054,0.014v0.014h0.041V28.49h0.027V28.5L17.5,28.518v0.014H17.54v0.014l0.054,0.014v0.014h0.041v0.014h0.027V28.6H17.7v0.014H17.73v0.014H17.77v0.014H17.8v0.014h0.041v0.014h0.027v0.014h0.041V28.7h0.027v0.014h0.041V28.73H18v0.014l0.081,0.014v0.014h0.027v0.014h0.041V28.8h0.04v0.014H18.23v0.014h0.041v0.014h0.041v0.014h0.027v0.014h0.041v0.014h0.041V28.9H18.46v0.014H18.5v0.014h0.054v0.014H18.6v0.014h0.041V28.97h0.041v0.014h0.04V29l0.095,0.014v0.014L19,29.068v0.014L19.109,29.1c0.12,0.043.27,0.072,0.392,0.113l0.865,0.155h0.122v0.014H20.61v0.014l0.325,0.014c0.07,0.02.192-.009,0.27,0.014a2.423,2.423,0,0,0,.676,0h0.257a0.071,0.071,0,0,0,.014-0.014h0.176V29.393h0.135V29.379H22.6c0.114-.034.267-0.036,0.379-0.071h0.095c0.084-.026.2-0.043,0.284-0.07h0.068c0.172-.058.375-0.093,0.541-0.155l0.108-.014V29.054h0.041V29.04h0.041V29.026h0.054V29.012h0.041V29h0.04V28.984h0.041V28.97H24.37V28.956H24.41V28.941h0.041V28.927h0.041V28.913l0.122-.028V28.871H24.64V28.857l0.081-.014V28.829h0.027V28.815l0.081-.014V28.786h0.027V28.772H24.9V28.758h0.027V28.744h0.041V28.73l0.054-.014V28.7l0.068-.014V28.673h0.041V28.659l0.054-.014V28.631h0.041V28.617h0.027V28.6l0.081-.028V28.561H25.37V28.546H25.4V28.532l0.054-.014V28.5l0.054-.014V28.476l0.054-.014V28.448h0.027V28.434h0.027V28.419h0.027V28.405h0.027V28.391l0.054-.014V28.363h0.027V28.349h0.027V28.335H25.8V28.321H25.83V28.307h0.027V28.292l0.054-.014,0.014-.028h0.027V28.236h0.027V28.222l0.081-.028,0.014-.028,0.081-.028,0.014-.028,0.054-.014,0.014-.028,0.081-.028,
	0.014-.028h0.027V28h0.027V27.982l0.041-.014,0.014-.028,0.054-.014,0.014-.028h0.027l0.014-.028h0.027l0.014-.028,0.054-.014,0.014-.028h0.027V27.785l0.041-.014,0.014-.028h0.027V27.728l0.041-.014,0.014-.028h0.027l0.027-.042H26.9V27.629l0.041-.014,0.014-.028H26.98l0.027-.042h0.027l0.014-.028h0.027l0.014-.028,0.04-.014,0.027-.042h0.027l0.027-.042h0.027l0.027-.042h0.027l0.027-.042h0.027l0.027-.042H27.4l0.041-.056h0.027l0.014-.028h0.014l0.014-.028h0.027l0.041-.056H27.6l0.054-.07h0.027l0.054-.071h0.027l0.068-.085h0.027l0.081-.1h0.027l0.068-.085c0.045-.047.1-0.08,0.149-0.127l0.122-.141h0.027l0.068-.085,0.243-.24V26.063l0.216-.212V25.824l0.135-.127V25.668l0.095-.085V25.555l0.081-.07V25.457l0.081-.071V25.358l0.068-.056V25.273l0.068-.056V25.189l0.054-.042V25.118l0.054-.042V25.048l0.027-.014V25.019l0.027-.014V24.977l0.027-.014,0.014-.042,0.054-.042V24.85l0.041-.028V24.794l0.041-.028V24.737l0.041-.028V24.681l0.041-.028,0.014-.042,0.027-.014V24.568l0.027-.014V24.526l0.027-.014,0.014-.042,0.041-.028V24.413h0.014l0.014-.042,0.027-.014V24.328l0.041-.028V24.272h0.014l0.014-.042,0.027-.014V24.187l0.04-.028V24.131l0.027-.014,0.014-.042H30.2V24.046l0.027-.014V24l0.027-.014V23.961l0.027-.014V23.919l0.027-.014V23.877l0.027-.014V23.834l0.027-.014,0.014-.056L30.4,23.75V23.721l0.027-.014V23.679l0.027-.014V23.637l0.027-.014,0.014-.056,0.027-.014V23.524l0.027-.014,0.014-.056,0.027-.014,0.014-.056h0.014l0.014-.042,0.027-.014,0.013-.056,0.027-.014,0.027-.085,0.027-.014,0.013-.056,0.027-.014L30.82,23l0.027-.014,0.027-.085,0.027-.014,0.027-.085,0.027-.014V22.762h0.014V22.734h0.013V22.706H31V22.677h0.014V22.649l0.027-.014,0.014-.057h0.014V22.55h0.014V22.522h0.014V22.494H31.1V22.466h0.014V22.437h0.014V22.409h0.014V22.381l0.027-.014,0.487-1.1V21.224h0.014V21.2h0.014l0.014-.071h0.013V21.083h0.014V21.055H31.74V21.013h0.014V20.984h0.014l0.014-.071h0.014l0.014-.085h0.013V20.8h0.014l0.027-.127h0.014V20.646h0.014V20.6H31.9V20.561h0.014V20.519h0.013V20.476h0.014V20.434h0.014V20.392H31.97V20.349h0.014V20.307H32V20.265H32.01V20.222h0.014l0.014-.085h0.014V20.081h0.014V20.039h0.014V20h0.013l0.027-.141h0.014l0.014-.1h0.014l0.027-.169H32.2V19.545h0.014V19.489h0.014V19.432H32.24V19.376h0.014V19.32h0.014l0.027-.183h0.014l0.176-1,0.027-.325h0.014V17.683h0.014V17.542h0.014V17.387h0.014V17.2h0.014V17.062h0.014V16.992h0.014V16.935h0.013l0.014-.1h0.014V16.794h0.014V16.752h0.014V16.709h0.014V16.667H32.7V16.625h0.014V16.583h0.014L32.74,16.5h0.014A1.692,1.692,0,0,1,33.065,16.456Z"/>
</g>
</svg>
